<?xml version="1.0" encoding="UTF-8" standalone="no"?>
<svg width="153px" height="33px" viewBox="0 0 153 33" version="1.1" xmlns="http://www.w3.org/2000/svg" xmlns:xlink="http://www.w3.org/1999/xlink" xmlns:sketch="http://www.bohemiancoding.com/sketch/ns">
    <!-- Generator: Sketch 3.3.2 (12043) - http://www.bohemiancoding.com/sketch -->
    <title>logotype</title>
    <desc>Created with Sketch.</desc>
    <defs>
        <linearGradient x1="77.1972656%" y1="42.7408854%" x2="89.0869141%" y2="2.35205907%" id="linearGradient-1">
            <stop stop-color="#56BC7C" offset="0%"></stop>
            <stop stop-color="#346C48" offset="97.3089617%"></stop>
            <stop stop-color="#1E5933" offset="100%"></stop>
        </linearGradient>
        <linearGradient x1="87.8038194%" y1="57.1751645%" x2="73.5297309%" y2="67.6346628%" id="linearGradient-2">
            <stop stop-color="#75E89F" offset="0%"></stop>
            <stop stop-color="#59C17F" offset="100%"></stop>
        </linearGradient>
        <linearGradient x1="0%" y1="0%" x2="101.999998%" y2="100.999999%" id="linearGradient-3">
            <stop stop-color="#3023AE" offset="0%"></stop>
            <stop stop-color="#C96DD8" offset="100%"></stop>
        </linearGradient>
    </defs>
    <g id="Page-1" stroke="none" stroke-width="1" fill="none" fill-rule="evenodd" sketch:type="MSPage">
        <g id="logotype" sketch:type="MSLayerGroup" transform="translate(-11.000000, -2.000000)">
            <g id="logotype-copy" transform="translate(41.929941, 8.505658)" sketch:type="MSShapeGroup">
                <rect id="Rectangle-1-Copy" fill="#9B9B9B" x="98.9902272" y="1.00590061" width="3.31608432" height="16.5954599"></rect>
                <ellipse id="Oval-1-Copy" fill="#BFBCC0" cx="112.807245" cy="9.30363053" rx="8.29021081" ry="8.29772993"></ellipse>
                <path d="M0.723903225,1.08209999 L10.1234736,1.08209999 L10.1234736,4.87852013 L4.86337338,4.87852013 L4.86337338,7.50857022 L9.96338356,7.50857022 L9.96338356,11.3049904 L4.86337338,11.3049904 L4.86337338,14.2094805 L10.1234736,14.2094805 L10.1234736,18.0059006 L0.723903225,18.0059006 L0.723903225,1.08209999 Z M15.0696738,1.08209999 L18.4773039,12.9516304 L18.5230439,12.9516304 L21.953544,1.08209999 L26.4131942,1.08209999 L20.741434,18.0059006 L16.2817838,18.0059006 L10.6328936,1.08209999 L15.0696738,1.08209999 Z M26.2136442,6.13637017 C26.4423454,5.58748741 26.7777687,5.00049659 27.2199243,4.37538011 C27.6620798,3.75026363 28.2223892,3.16708444 28.9008693,2.62582504 C29.5793494,2.08456565 30.3797914,1.63860509 31.3022194,1.28792999 C32.2246474,0.937254895 33.2804685,0.761919975 34.4697145,0.761919975 C35.7656877,0.761919975 36.9625391,0.998240954 38.0603047,1.47089 C39.1580702,1.94353905 40.1033541,2.58008104 40.8961848,3.38053507 C41.6890154,4.1809891 42.3064993,5.11483813 42.7486548,6.18211017 C43.1908104,7.24938222 43.4118849,8.37000105 43.4118849,9.5440003 C43.4118849,10.7179995 43.1908104,11.8386184 42.7486548,12.9058904 C42.3064993,13.9731625 41.6890154,14.9070115 40.8961848,15.7074655 C40.1033541,16.5079196 39.1580702,17.1444615 38.0603047,17.6171106 C36.9625391,18.0897596 35.7580645,18.3260806 34.4468445,18.3260806 C33.1203779,18.3260806 31.9082799,18.0821364 30.8105144,17.5942406 C29.7127489,17.1063448 28.7750882,16.4621796 27.9975043,15.6617255 C27.2199204,14.8612715 26.617683,13.9464806 26.1907742,12.9173254 C25.7638654,11.8881702 25.5504142,10.8323491 25.5504142,9.7498303 C25.5504142,9.1857008 25.5961538,8.59870998 25.6876342,7.98884024 C25.7791147,7.3789705 25.9544496,6.76148665 26.2136442,6.13637017 L26.2136442,6.13637017 Z M29.8728444,9.4982603 C29.8728444,10.1538703 29.97957,10.782789 30.1930244,11.3850354 C30.4064788,11.9872817 30.7152207,12.5209097 31.1192594,12.9859354 C31.5232981,13.4509611 32.0111866,13.8245007 32.5829395,14.1065655 C33.1546923,14.3886302 33.8064809,14.5296605 34.5383245,14.5296605 C35.3006617,14.5296605 35.9676967,14.3733837 36.5394496,14.0608255 C37.1112025,13.7482672 37.5838444,13.3480462 37.9573897,12.8601504 C38.3309349,12.3722546 38.6129954,11.8386266 38.8035797,11.2592504 C38.994164,10.6798741 39.0894547,10.1157531 39.0894547,9.5668703 C39.0894547,9.01798753 38.994164,8.45005486 38.8035797,7.86305524 C38.6129954,7.27605561 38.3309349,6.73480434 37.9573897,6.23928518 C37.5838444,5.74376601 37.1073909,5.33973337 36.5280146,5.02717513 C35.9486384,4.71461689 35.2701685,4.55834011 34.4925845,4.55834011 C33.7454941,4.55834011 33.0822707,4.703182 32.5028945,4.99287013 C31.9235182,5.28255826 31.4394414,5.66372113 31.0506494,6.13637017 C30.6618575,6.60901922 30.368362,7.13883561 30.1701544,7.72583523 C29.9719467,8.31283485 29.8728444,8.9036373 29.8728444,9.4982603 L29.8728444,9.4982603 Z M44.858975,1.08209999 L49.1814051,1.08209999 L49.1814051,14.2094805 L54.1899353,14.2094805 L54.1899353,18.0059006 L44.858975,18.0059006 L44.858975,1.08209999 Z M56.2087754,1.08209999 L59.6164055,12.9516304 L59.6621455,12.9516304 L63.0926457,1.08209999 L67.5522958,1.08209999 L61.8805356,18.0059006 L57.4208855,18.0059006 L51.7719952,1.08209999 L56.2087754,1.08209999 Z M68.4505059,1.08209999 L77.8500762,1.08209999 L77.8500762,4.87852013 L72.589976,4.87852013 L72.589976,7.50857022 L77.6899862,7.50857022 L77.6899862,11.3049904 L72.589976,11.3049904 L72.589976,14.2094805 L77.8500762,14.2094805 L77.8500762,18.0059006 L68.4505059,18.0059006 L68.4505059,1.08209999 Z M79.2971663,1.08209999 L84.9003165,1.08209999 C85.3729656,1.08209999 85.9256517,1.0973465 86.5583916,1.12783999 C87.1911314,1.15833348 87.8467316,1.27268234 88.5252117,1.47089 C89.2036918,1.66909767 89.87835,1.98165122 90.5492067,2.40856004 C91.2200635,2.83546885 91.829924,3.44532944 92.3788068,4.2381601 C92.9581831,5.04623751 93.3622157,5.89241908 93.5909169,6.7767302 C93.819618,7.66104132 93.9339669,8.56820894 93.9339669,9.4982603 C93.9339669,10.6570128 93.7815017,11.7509502 93.4765668,12.7801054 C93.171632,13.8092606 92.6761202,14.7126166 91.9900168,15.4902005 C91.3039133,16.2677844 90.404369,16.8814567 89.2913567,17.3312356 C88.1783444,17.7810145 86.8214046,18.0059006 85.2204965,18.0059006 L79.2971663,18.0059006 L79.2971663,1.08209999 Z M83.6195965,14.2094805 L85.4720666,14.2094805 C86.280144,14.2094805 86.9509906,14.0798851 87.4846266,13.8206905 C88.0182626,13.5614958 88.4413534,13.2184492 88.7539117,12.7915404 C89.0664699,12.3646316 89.2875444,11.8691199 89.4171417,11.3049904 C89.546739,10.7408609 89.6115367,10.1614933 89.6115367,9.5668703 C89.6115367,9.07897451 89.5505506,8.55678138 89.4285767,8.00027524 C89.3066028,7.4437691 89.0931515,6.92157597 88.7882167,6.43368018 C88.6662427,6.25071926 88.5137776,6.06394946 88.3308167,5.87336516 C88.1478557,5.68278087 87.9267813,5.51506921 87.6675866,5.37022514 C87.408392,5.22538108 87.0996501,5.10722059 86.7413516,5.01574013 C86.3830531,4.92425967 85.9675856,4.87852013 85.4949366,4.87852013 L83.6195965,4.87852013 L83.6195965,14.2094805 Z" id="EVOLVED-Copy" fill="#000000"></path>
            </g>
            <g id="abstract-rectangles" transform="translate(19.888760, 19.955772) rotate(-45.000000) translate(-19.888760, -19.955772) translate(10.847664, 1.325635)" sketch:type="MSShapeGroup">
                <rect id="Rectangle-2" fill="#53EF8E" x="2.33603091e-13" y="15.8950823" width="17.9173478" height="14.2007965"></rect>
                <path d="M8.95867388,30.0958787 L17.9173478,30.0958787 L17.9173478,36.8225718" id="Rectangle-3" fill="url(#linearGradient-1)" transform="translate(13.438011, 33.459225) scale(-1, 1) translate(-13.438011, -33.459225) "></path>
                <path d="M2.33590924e-13,15.8950823 L13.4380108,15.8950823 L13.4380108,30.0958787" id="Rectangle-3-Copy" fill="url(#linearGradient-2)" transform="translate(6.719005, 22.995481) scale(-1, 1) translate(-6.719005, -22.995481) "></path>
                <path d="M15.9605541,0.134322172 L15.9685173,13.223008 L7.10009259,22.6118337 L0.0127643192,15.9020122 L15.9605541,0.134322172 L15.9605541,0.134322172 Z" id="Rectangle-3" fill="url(#linearGradient-3)"></path>
            </g>
        </g>
    </g>
</svg>